# xmcd
#
# Track frame offsets: 
#        150
#        9352
#        22855
#        33103
#        49043
#        50523
#        52544
#        63931
#        75274
#        87676
#        99138
#        109417
#        119877
#        131479
#        142609
#        153778
#        166223
#        177128
#        187552
#        199520
#        210478
#        222214
#        232273
#        242649
#        257735
#        268662
#        278649
#        288809
#        303790
#
# Disc length: 4222 seconds
#
# Revision: 0
# Processed by: cddbd v1.5.2PL0 Copyright (c) Steve Scherf et al.
# Submitted via: ExactAudioCopy v0.99pb5
#
DISCID=6e107c1d
DTITLE=Jan and Dean  - Collector's Series - Disc 2-Liberty Years 1962-
DTITLE=63
DYEAR=1900
DGENRE=
TTITLE0=Palisades Park (Mono Version)
TTITLE1=Poor Little Puppet (Mono Version)
TTITLE2=My Favorite Dream (Track Only)
TTITLE3=When the Saints Go Marching In (Live)
TTITLE4=Christmas Greetings (Jingle Bells)
TTITLE5=Christmas Greetings (The First Noel)
TTITLE6=Linda (Alt. Version #1)
TTITLE7=Linda (Alt. Version #2)
TTITLE8=Turkey Trot (Backing Track)
TTITLE9=Rhythm of the Rain (Mono Version)
TTITLE10=My Foolish Heart (Track Only)
TTITLE11=Linda LP Outtake (Track Only)
TTITLE12=Surf City (Backing Track)
TTITLE13=Surf City (Double-Tracked Lead Vocal)
TTITLE14=Surf City (with Overdubbed Horns)
TTITLE15=She's My Summer Girl (Single Version)
TTITLE16=Honolulu Lulu (Backing Track)
TTITLE17=Honolulu Lulu (Extended Fade)
TTITLE18=I Left My Heart in San Francisco (Backing Track)
TTITLE19=You Came a Long Way From St. Louis (Backing Track)
TTITLE20=I Gotta Drive (The Matadors)
TTITLE21=Perfidia (The Matadors)
TTITLE22=Perfidia (The Matadors)
TTITLE23=Surfin Hearse (Track 8A Only)
TTITLE24=Surf Route 101 (Backing Track)
TTITLE25=Little Deuce Coupe (Extended Fade)
TTITLE26=Little Deuce Coupe (Extended Fade)
TTITLE27=Hot Stocker (Extended Fade)
TTITLE28=Auto Sound Effects
EXTD=
EXTT0=
EXTT1=
EXTT2=
EXTT3=
EXTT4=
EXTT5=
EXTT6=
EXTT7=
EXTT8=
EXTT9=
EXTT10=
EXTT11=
EXTT12=
EXTT13=
EXTT14=
EXTT15=
EXTT16=
EXTT17=
EXTT18=
EXTT19=
EXTT20=
EXTT21=
EXTT22=
EXTT23=
EXTT24=
EXTT25=
EXTT26=
EXTT27=
EXTT28=
PLAYORDER=
